<?xml version="1.0" encoding="iso-8859-1"?>
<!-- Generator: Adobe Illustrator 19.0.0, SVG Export Plug-In . SVG Version: 6.00 Build 0)  -->
<svg xmlns="http://www.w3.org/2000/svg" xmlns:xlink="http://www.w3.org/1999/xlink" version="1.1" id="Capa_1" x="0px" y="0px" viewBox="0 0 511 511" style="enable-background:new 0 0 511 511;" xml:space="preserve" width="512px" height="512px">
<g>
	<rect x="328" y="31.5" width="15" height="24" fill="#FFFFFF"/>
	<rect x="328" y="71.5" width="15" height="64" fill="#FFFFFF"/>
	<path d="M463,208h-71v47h16v57h-17v-24H279v-17h96V0H136v271h96v17H120v24h-17v-57h16v-47H48v47h40v72h32v24h112v113h-64.5   c-12.958,0-23.5,10.542-23.5,23.5s10.542,23.5,23.5,23.5s23.5-10.542,23.5-23.5c0-2.997-0.57-5.862-1.597-8.5h132.195   c-1.027,2.638-1.597,5.503-1.597,8.5c0,12.958,10.542,23.5,23.5,23.5s23.5-10.542,23.5-23.5S356.458,464,343.5,464H279V351h112v-24   h32v-72h40V208z M63,223h41v17H63V223z M151,15h209v241H151V15z M247,271h17v17h-17V271z M176,487.5c0,4.687-3.813,8.5-8.5,8.5   s-8.5-3.813-8.5-8.5s3.813-8.5,8.5-8.5S176,482.813,176,487.5z M352,487.5c0,4.687-3.813,8.5-8.5,8.5s-8.5-3.813-8.5-8.5   s3.813-8.5,8.5-8.5S352,482.813,352,487.5z M264,464h-17V351h17V464z M376,336H135v-33h241V336z M448,240h-41v-17h41V240z" fill="#FFFFFF"/>
</g>
<g>
</g>
<g>
</g>
<g>
</g>
<g>
</g>
<g>
</g>
<g>
</g>
<g>
</g>
<g>
</g>
<g>
</g>
<g>
</g>
<g>
</g>
<g>
</g>
<g>
</g>
<g>
</g>
<g>
</g>
</svg>
