<?xml version="1.0" encoding="utf-8"?>
<!-- Generator: Adobe Illustrator 16.0.0, SVG Export Plug-In . SVG Version: 6.00 Build 0)  -->
<!DOCTYPE svg PUBLIC "-//W3C//DTD SVG 1.1//EN" "http://www.w3.org/Graphics/SVG/1.1/DTD/svg11.dtd">
<svg version="1.1" id="Capa_1" xmlns="http://www.w3.org/2000/svg" xmlns:xlink="http://www.w3.org/1999/xlink" x="0px" y="0px"
	 width="512px" height="512px" viewBox="0 0 512 512" enable-background="new 0 0 512 512" xml:space="preserve">
<path fill="#FFFFFF" d="M188.212,208.336c-1.604,0.1-6.816,4.581-6.816,4.581C184.2,214.125,189.826,208.237,188.212,208.336z
	 M188.916,207.417l-0.415,0.252c0.145-0.054,0.28-0.108,0.406-0.162C188.906,207.471,188.916,207.453,188.916,207.417z
	 M67.648,231.327h14.029v-6.744H67.648c-3.823,0-6.582-0.757-7.591-2.073c-0.767-1.01-0.433-2.326-0.433-2.326l0.171-40.717h-6.744
	v39.284c-0.297,1.37-0.676,4.661,1.542,7.69C56.955,229.677,61.364,231.327,67.648,231.327z M511.107,327.007l-1.902-15.436
	c-7.52-60.3-7.817-62.6-4.914-168.864c0.091-3.724-2.813-6.816-6.563-6.924c-3.534-0.234-6.816,2.831-6.934,6.555
	c-2.921,107.256-2.605,109.646,5.022,170.874l1.911,15.463c1.956,14.813,0.234,25.073-4.806,29.022
	c-5.869,4.526-16.139,0.506-16.842,0.217c-49.599-15.256-111.386,16.266-114.001,17.572c-3.309,1.695-4.606,5.779-2.894,9.088
	c1.199,2.318,3.562,3.616,5.995,3.616c1.037,0,2.083-0.216,3.093-0.757c0.406-0.189,27.986-14.21,59.29-18.898v104.993h-28.013
	c-5.707,0-10.333,4.616-10.333,10.323c0,5.689,4.626,10.323,10.333,10.323h79.576c5.707,0,10.333-4.634,10.333-10.323
	c0-5.707-4.635-10.323-10.333-10.323h-25.813v-106.13c6.213,0.424,12.344,1.389,18.222,3.192c0.722,0.288,17.446,7.159,29.582-2.164
	C510.413,361.286,513.794,347.32,511.107,327.007z M238.063,279.609h51.762v-46.208H104.182c0.108-0.586,0.153-1.271,0.189-2.119
	c0.018-0.505,0.045-1.064,0.081-1.695c0.234-3.904,0.919-5.239,4.742-5.978c0.965-0.18,2.182-0.234,3.408-0.216v3.246h49.823
	c1.452,0.271,2.895,0.478,4.238,0.478c2.092,0,3.895-0.478,4.959-1.911c0.559-0.749,0.559-1.786,0.55-2.786
	c0-0.965-0.009-1.957,0.46-2.542c0.721-0.875,2.11-1.461,3.092-1.551c-1.037,2.001-1.686,4.129-1.686,6.383h56.432
	c0-10.855-12.641-19.655-28.211-19.655c-4.869,0-9.35,0.929-13.335,2.435c0.929,9.295-7.817,8.394-11.198,7.708
	c-0.397,0.496-0.74,1.019-1.082,1.542c-0.153-0.036-0.28-0.126-0.451-0.135c-1.505-0.072-3.678,0.838-4.823,2.227
	c-0.857,1.046-0.839,2.398-0.839,3.588c0.009,0.73,0.009,1.488-0.216,1.785c-0.595,0.802-1.767,1.064-3.11,1.136v-7.772h-54.593
	v4.12c-1.452-0.009-2.804,0.117-3.724,0.298c-4.842,0.928-5.815,3.155-6.077,7.483c-0.036,0.649-0.054,1.226-0.081,1.731
	c-0.036,0.982-0.072,1.668-0.208,2.191H0V279.6h28.175v224.124h209.878L238.063,279.609z M76.132,81.271l8.484,120.97l-22.405,1.569
	L53.727,82.85L76.132,81.271z"/>
</svg>
