<?xml version="1.0" encoding="utf-8"?>
<!-- Generator: Adobe Illustrator 16.0.0, SVG Export Plug-In . SVG Version: 6.00 Build 0)  -->
<!DOCTYPE svg PUBLIC "-//W3C//DTD SVG 1.1//EN" "http://www.w3.org/Graphics/SVG/1.1/DTD/svg11.dtd">
<svg version="1.1" xmlns="http://www.w3.org/2000/svg" xmlns:xlink="http://www.w3.org/1999/xlink" x="0px" y="0px"
	 width="156.15px" height="139.427px" viewBox="0 0 156.15 139.427" enable-background="new 0 0 156.15 139.427"
	 xml:space="preserve">
<g id="Laag_2">
</g>
<g id="Laag_1">
	<g>
		<rect x="27.84" y="96.904" fill="#FFFFFF" width="96.587" height="2.773"/>
		<path fill="#FFFFFF" d="M99.063,81.98H63.505c0-8.291,7.96-15.012,17.779-15.012C91.103,66.968,99.063,73.689,99.063,81.98z"/>
		<rect x="22.04" y="93.297" fill="#FFFFFF" width="108.439" height="2.521"/>
		<rect x="27.84" y="100.904" fill="#FFFFFF" width="3.026" height="36.566"/>
		<rect x="121.401" y="100.903" fill="#FFFFFF" width="3.026" height="36.567"/>
		<rect x="52.569" y="100.904" fill="#FFFFFF" width="3.026" height="36.566"/>
		<rect x="32.379" y="107.773" fill="#FFFFFF" width="18.41" height="1.514"/>
		<rect x="32.379" y="118.208" fill="#FFFFFF" width="18.41" height="1.514"/>
		<rect x="32.379" y="129.04" fill="#FFFFFF" width="18.41" height="1.513"/>
		<circle fill="#FFFFFF" cx="81.284" cy="54.318" r="11.807"/>
		<rect x="63.505" y="81.98" fill="#FFFFFF" width="35.558" height="9.782"/>
	</g>
	<rect x="139.456" y="59.928" fill="#FFFFFF" width="8.167" height="79.5"/>
	
		<rect x="110.309" y="-15.05" transform="matrix(0.6362 -0.7715 0.7715 0.6362 14.4189 101.2476)" fill="#FFFFFF" width="8.513" height="100.77"/>
	
		<rect x="37.328" y="-15.05" transform="matrix(0.6362 0.7715 -0.7715 0.6362 42.3915 -19.2285)" fill="#FFFFFF" width="8.513" height="100.77"/>
	<rect x="7.456" y="59.928" fill="#FFFFFF" width="8.167" height="79.5"/>
</g>
</svg>
