<?xml version="1.0" encoding="utf-8"?>
<!-- Generator: Adobe Illustrator 16.0.0, SVG Export Plug-In . SVG Version: 6.00 Build 0)  -->
<!DOCTYPE svg PUBLIC "-//W3C//DTD SVG 1.1//EN" "http://www.w3.org/Graphics/SVG/1.1/DTD/svg11.dtd">
<svg version="1.1" xmlns="http://www.w3.org/2000/svg" xmlns:xlink="http://www.w3.org/1999/xlink" x="0px" y="0px"
	 width="214.305px" height="187.664px" viewBox="0 0 214.305 187.664" enable-background="new 0 0 214.305 187.664"
	 xml:space="preserve">
<g id="Laag_2">
</g>
<g id="Laag_1">
	<rect x="11.463" y="107.494" fill="#FFFFFF" width="190.881" height="5.48"/>
	<path fill="none" stroke="#FFFFFF" stroke-width="6" stroke-miterlimit="10" d="M46.153,41.128c0,1.529,0,17.149,0,20.377H14.18
		c0-3.497,0-19.104,0-20.377c0-4.766,7.158-8.63,15.986-8.63C38.996,32.499,46.153,36.362,46.153,41.128z"/>
	<path fill="#FFFFFF" d="M152.217,78H81.945c0-16.384,15.731-29.667,35.137-29.667S152.217,61.616,152.217,78z"/>
	<rect x="0" y="100.367" fill="#FFFFFF" width="214.305" height="4.982"/>
	<rect x="11.463" y="115.398" fill="#FFFFFF" width="5.979" height="72.266"/>
	<rect x="196.364" y="115.396" fill="#FFFFFF" width="5.98" height="72.268"/>
	<rect x="60.334" y="115.398" fill="#FFFFFF" width="5.979" height="72.266"/>
	<rect x="20.434" y="128.975" fill="#FFFFFF" width="36.382" height="2.99"/>
	<rect x="20.434" y="149.598" fill="#FFFFFF" width="36.382" height="2.989"/>
	<rect x="20.434" y="171.003" fill="#FFFFFF" width="36.382" height="2.99"/>
	<circle fill="#FFFFFF" cx="117.081" cy="23.333" r="23.333"/>
	<rect x="81.945" y="78" fill="#FFFFFF" width="70.272" height="19.333"/>
	<path fill="#FFFFFF" d="M-38.597,29.582"/>
	<g>
		<path fill="#FFFFFF" d="M7.523,29.04v34.127H52.81V29.04H7.523z M23.476,57.923l2.446-11.789
			c-1.113-1.097-1.805-2.619-1.805-4.305c0-3.34,2.708-6.049,6.049-6.049s6.049,2.708,6.049,6.049c0,1.686-0.692,3.207-1.804,4.304
			l2.446,11.79H23.476z"/>
	</g>
	<g>
		<path fill="none" stroke="#FFFFFF" stroke-width="6" stroke-miterlimit="10" d="M78.791,25.666v-2.333c0-1.269,0-2.306,0-3.173
			c0-8.829-7.158-15.986-15.986-15.986c-8.829,0-15.986,7.157-15.986,15.986c0,2.832,0,6.36,0,12.338l0,0"/>
	</g>
</g>
</svg>
