<?xml version="1.0" encoding="utf-8"?>
<!-- Generator: Adobe Illustrator 16.0.0, SVG Export Plug-In . SVG Version: 6.00 Build 0)  -->
<!DOCTYPE svg PUBLIC "-//W3C//DTD SVG 1.1//EN" "http://www.w3.org/Graphics/SVG/1.1/DTD/svg11.dtd">
<svg version="1.1" id="Laag_1" xmlns="http://www.w3.org/2000/svg" xmlns:xlink="http://www.w3.org/1999/xlink" x="0px" y="0px"
	 width="214.305px" height="187.664px" viewBox="0 0 214.305 187.664" enable-background="new 0 0 214.305 187.664"
	 xml:space="preserve">
<rect x="11.463" y="107.494" fill="#FFFFFF" width="190.881" height="5.481"/>
<path fill="#FFFFFF" d="M152.217,78H81.945c0-16.384,15.731-29.667,35.136-29.667C136.487,48.333,152.217,61.616,152.217,78z"/>
<rect y="100.367" fill="#FFFFFF" width="214.305" height="4.983"/>
<rect x="11.463" y="115.398" fill="#FFFFFF" width="5.98" height="72.266"/>
<rect x="196.364" y="115.397" fill="#FFFFFF" width="5.98" height="72.267"/>
<rect x="60.334" y="115.398" fill="#FFFFFF" width="5.98" height="72.266"/>
<rect x="20.434" y="128.975" fill="#FFFFFF" width="36.382" height="2.99"/>
<rect x="20.434" y="149.597" fill="#FFFFFF" width="36.382" height="2.99"/>
<rect x="20.434" y="171.003" fill="#FFFFFF" width="36.382" height="2.99"/>
<rect x="81.945" y="78" fill="#FFFFFF" width="70.272" height="19.333"/>
<rect x="83.363" y="115.398" fill="#FFFFFF" width="67.436" height="20.152"/>
<rect x="109.448" y="143.365" fill="#FFFFFF" width="15.267" height="23.685"/>
<rect x="125.068" y="171.866" transform="matrix(-0.8784 -0.4779 0.4779 -0.8784 174.7163 396.1044)" fill="#FFFFFF" width="25.349" height="7.925"/>
<rect x="83.392" y="171.867" transform="matrix(-0.8784 0.4779 -0.4779 -0.8784 264.4805 284.3715)" fill="#FFFFFF" width="25.349" height="7.926"/>
</svg>
