<?xml version="1.0" encoding="utf-8"?>
<!-- Generator: Adobe Illustrator 16.0.0, SVG Export Plug-In . SVG Version: 6.00 Build 0)  -->
<!DOCTYPE svg PUBLIC "-//W3C//DTD SVG 1.1//EN" "http://www.w3.org/Graphics/SVG/1.1/DTD/svg11.dtd">
<svg version="1.1" xmlns="http://www.w3.org/2000/svg" xmlns:xlink="http://www.w3.org/1999/xlink" x="0px" y="0px"
	 width="214.305px" height="187.664px" viewBox="0 0 214.305 187.664" enable-background="new 0 0 214.305 187.664"
	 xml:space="preserve">
<g id="Laag_2">
</g>
<g id="Laag_1">
	<rect x="11.463" y="107.494" fill="#FFFFFF" width="190.881" height="5.48"/>
	<rect x="0" y="100.367" fill="#FFFFFF" width="214.305" height="4.982"/>
	<rect x="11.463" y="115.398" fill="#FFFFFF" width="5.979" height="72.266"/>
	<rect x="196.364" y="115.396" fill="#FFFFFF" width="5.98" height="72.268"/>
	<rect x="60.334" y="115.398" fill="#FFFFFF" width="5.979" height="72.266"/>
	<rect x="20.434" y="128.975" fill="#FFFFFF" width="36.382" height="2.99"/>
	<rect x="20.434" y="149.598" fill="#FFFFFF" width="36.382" height="2.989"/>
	<rect x="20.434" y="171.003" fill="#FFFFFF" width="36.382" height="2.99"/>
	<path fill="#FFFFFF" d="M-38.597,29.582"/>
	<g>
		<path fill="#FFFFFF" d="M73.064,42.455v51.377h68.179V42.455H73.064z M97.081,85.938l3.683-17.748
			c-1.676-1.651-2.718-3.942-2.718-6.48c0-5.029,4.077-9.106,9.106-9.106c5.028,0,9.105,4.078,9.105,9.106
			c0,2.538-1.041,4.828-2.716,6.479l3.684,17.749H97.081z"/>
	</g>
	<path fill="none" stroke="#FFFFFF" stroke-width="6" stroke-miterlimit="10" d="M131.076,61.404c0,2.312,0,25.932,0,30.813H82.73
		c0-5.289,0-28.888,0-30.813c0-7.208,10.824-13.049,24.174-13.049C120.255,48.355,131.076,54.197,131.076,61.404z"/>
	<g>
		<path fill="none" stroke="#FFFFFF" stroke-width="6" stroke-miterlimit="10" d="M179.567,37.869v-3.527c0-1.918,0-3.487,0-4.797
			c0-13.351-10.822-24.174-24.174-24.174c-13.35,0-24.172,10.823-24.172,24.174c0,4.282,0,9.617,0,18.658l0,0"/>
	</g>
</g>
</svg>
