<?xml version="1.0" encoding="utf-8"?>
<!-- Generator: Adobe Illustrator 16.0.0, SVG Export Plug-In . SVG Version: 6.00 Build 0)  -->
<!DOCTYPE svg PUBLIC "-//W3C//DTD SVG 1.1//EN" "http://www.w3.org/Graphics/SVG/1.1/DTD/svg11.dtd">
<svg version="1.1" id="Laag_1" xmlns="http://www.w3.org/2000/svg" xmlns:xlink="http://www.w3.org/1999/xlink" x="0px" y="0px"
	 width="361.344px" height="212.338px" viewBox="0 0 361.344 212.338" enable-background="new 0 0 361.344 212.338"
	 xml:space="preserve">
<rect x="19.328" y="77.162" fill="#FFFFFF" width="321.849" height="9.244"/>
<path fill="#FFFFFF" d="M256.657,56.847H138.169C138.169,25.451,164.694,0,197.413,0C230.133,0,256.657,25.451,256.657,56.847z"/>
<rect y="65.145" fill="#FFFFFF" width="361.344" height="8.403"/>
<rect x="19.328" y="90.489" fill="#FFFFFF" width="10.084" height="121.849"/>
<rect x="331.093" y="90.489" fill="#FFFFFF" width="10.084" height="121.85"/>
<rect x="101.731" y="90.489" fill="#FFFFFF" width="10.084" height="121.849"/>
<rect x="34.454" y="113.38" fill="#FFFFFF" width="61.345" height="5.042"/>
<rect x="34.454" y="148.153" fill="#FFFFFF" width="61.345" height="5.042"/>
<rect x="34.454" y="184.246" fill="#FFFFFF" width="61.345" height="5.042"/>
<rect x="138.169" y="95.33" fill="#FFFFFF" width="118.488" height="28.571"/>
<rect x="184" y="137.631" fill="#FFFFFF" width="26.825" height="41.614"/>
<rect x="212.584" y="187.708" transform="matrix(-0.8784 -0.4779 0.4779 -0.8784 348.1256 477.9064)" fill="#FFFFFF" width="44.539" height="13.925"/>
<rect x="137.093" y="188.617" transform="matrix(-0.8784 0.4779 -0.4779 -0.8784 392.8148 291.2264)" fill="#FFFFFF" width="44.539" height="13.925"/>
</svg>
