<?xml version="1.0" encoding="iso-8859-1"?>
<!-- Generator: Adobe Illustrator 18.0.0, SVG Export Plug-In . SVG Version: 6.00 Build 0)  -->
<!DOCTYPE svg PUBLIC "-//W3C//DTD SVG 1.1//EN" "http://www.w3.org/Graphics/SVG/1.1/DTD/svg11.dtd">
<svg xmlns="http://www.w3.org/2000/svg" xmlns:xlink="http://www.w3.org/1999/xlink" version="1.1" id="Capa_1" x="0px" y="0px" viewBox="0 0 488 488" style="enable-background:new 0 0 488 488;" xml:space="preserve" width="512px" height="512px">
<path d="M475,103.774H13c-7.15,0-13,5.85-13,13v254.451c0,7.15,5.85,13,13,13h10c7.15,0,13-5.85,13-13V180.892h266.667v79.668  c0,7.15,5.85,13,13,13H452v97.666c0,7.15,5.85,13,13,13h10c7.15,0,13-5.85,13-13V116.774C488,109.624,482.15,103.774,475,103.774z   M443.953,250.07H323.951c-5.523,0-10-4.477-10-10c0-5.522,4.477-10,10-10h120.002c5.523,0,10,4.478,10,10  C453.953,245.593,449.476,250.07,443.953,250.07z M443.953,204.243H323.951c-5.523,0-10-4.478-10-10c0-5.522,4.477-10,10-10h120.002  c5.523,0,10,4.478,10,10C453.953,199.766,449.476,204.243,443.953,204.243z" fill="#FFFFFF"/>
<g>
</g>
<g>
</g>
<g>
</g>
<g>
</g>
<g>
</g>
<g>
</g>
<g>
</g>
<g>
</g>
<g>
</g>
<g>
</g>
<g>
</g>
<g>
</g>
<g>
</g>
<g>
</g>
<g>
</g>
</svg>
